#!OML:ASF I:\Actors\actors\Patient Classification 1\Patient 1\Session 1\Subject1.ASF
:FULLY-SPECIFIED
:DEGREES
945
root 0.726431 17.543 8.85005 9.29545 -9.41971 -10.0301
lowerback 1.00863 1.63233 6.94066
upperback -8.01987 2.64497 0.81343
thorax -8.79233 0.822922 -3.2322
lowerneck -12.4968 4.10162 6.12221
upperneck 28.8744 2.87124 4.95373
head 11.5458 2.57639 1.17175
rclavicle 3.4191e-014 -2.22639e-014
rhumerus 72.6125 61.2575 -9.23283
rradius 122.532
rwrist -46.492
rhand 10.4325 -25.9532
rfingers 7.12502
rthumb 35.5364 -52.3823
lclavicle 3.4191e-014 -2.22639e-014
lhumerus 31.1041 -59.4443 22.8094
lradius 88.1718
lwrist 65.7512
lhand 13.895 -15.9396
lfingers 7.12502
lthumb 38.8105 9.63446
rfemur -7.0374 25.4374 25.0755
rtibia 3.38483
rfoot -8.63037 -17.4179
rtoes -2.79128
lfemur 4.22636 -35.8281 -10.8392
ltibia -3.02954
lfoot -21.3104 50.4979
ltoes 12.4386
946
root 0.727936 17.543 8.85011 9.17169 -8.71149 -9.95469
lowerback 1.00916 1.50235 6.6281
upperback -7.96962 2.453 0.838435
thorax -8.76489 0.755119 -3.01666
lowerneck -12.6976 4.05288 5.7471
upperneck 28.7898 2.78344 5.29769
head 11.5374 2.53952 1.35213
rclavicle 1.05356e-014 -4.77083e-015
rhumerus 68.3291 61.302 -10.3229
rradius 122.996
rwrist -46.2461
rhand 10.7435 -25.0614
rfingers 7.12502
rthumb 35.8312 -51.4192
lclavicle 1.05356e-014 -4.77083e-015
lhumerus 31.1618 -59.307 22.9912
lradius 88.0764
lwrist 65.6387
lhand 14.0982 -15.9887
lfingers 7.12502
lthumb 39.0022 9.53071
rfemur -6.83259 25.3496 25.07
rtibia 3.32193
rfoot -8.83451 -17.9941
rtoes -2.34799
lfemur 4.14522 -36.1939 -10.8353
ltibia -3.06509
lfoot -20.7456 50.2665
ltoes 12.0116
947
root 0.731268 17.5439 8.84951 9.05165 -8.08061 -9.8856
lowerback 1.03018 1.39262 6.40597
upperback -7.90804 2.29538 0.874128
thorax -8.73057 0.698256 -2.84306
lowerneck -12.4332 4.05353 6.03966
upperneck 28.3803 2.88555 4.85534
head 11.3388 2.55026 1.13535
rclavicle -1.03368e-014 7.95139e-015
rhumerus 63.7644 61.0808 -12.6018
rradius 121.911
rwrist -46.1776
rhand 9.90095 -25.1673
rfingers 7.12502
rthumb 35.0324 -51.7158
lclavicle -1.03368e-014 7.95139e-015
lhumerus 31.1685 -59.1702 23.1365
lradius 88.0808
lwrist 65.7305
lhand 14.0949 -15.9377
lfingers 7.12502
lthumb 38.999 9.58259
rfemur -6.68852 25.2241 25.0512
rtibia 3.32937
rfoot -9.01871 -18.4651
rtoes -1.87016
lfemur 4.069 -36.5263 -10.8329
ltibia -3.11754
lfoot -19.9798 50.1156
ltoes 11.2949
948
root 0.734498 17.5467 8.84557 8.94417 -7.59685 -9.90856
lowerback 1.09173 1.26865 6.34396
upperback -7.84736 2.13478 0.965568
thorax -8.71982 0.629517 -2.70023
lowerneck -12.0717 4.16326 6.64844
upperneck 28.0291 3.18967 4.00406
head 11.1626 2.63722 0.745511
rclavicle 1.26228e-014 -8.74653e-015
rhumerus 60.2658 60.3579 -14.4304
rradius 120.28
rwrist -46.7647
rhand 8.89602 -25.3923
rfingers 7.12502
rthumb 34.0785 -52.1586
lclavicle 1.26228e-014 -8.74653e-015
lhumerus 30.7624 -59.0436 23.4836
lradius 88.1812
lwrist 65.9092
lhand 14.2649 -15.7512
lfingers 7.12502
lthumb 39.1593 9.72306
rfemur -6.59618 25.155 25.123
rtibia 3.40912
rfoot -9.21292 -18.8076
rtoes -1.28575
lfemur 3.95666 -36.6009 -10.6764
ltibia -3.14583
lfoot -19.2771 49.8337
ltoes 10.6899
949
root 0.739915 17.5485 8.8386 8.95146 -7.42112 -10.0192
lowerback 1.10609 1.17489 6.46829
upperback -7.84594 2.02678 1.09985
thorax -8.74006 0.572502 -2.61875
lowerneck -12.4748 4.37608 6.39722
upperneck 28.5548 3.48563 4.06613
head 11.4395 2.76841 0.873865
rclavicle 2.25621e-014 -2.38542e-014
rhumerus 58.3924 59.3891 -15.361
rradius 118.331
rwrist -48.2673
rhand 6.8573 -25.7013
rfingers 7.12502
rthumb 32.1399 -52.8791
lclavicle 2.25621e-014 -2.38542e-014
lhumerus 29.9612 -59.014 23.9921
lradius 88.3236
lwrist 66.2153
lhand 14.7492 -15.7153
lfingers 7.12502
lthumb 39.6155 9.62559
rfemur -6.71002 24.9946 25.2118
rtibia 3.54581
rfoot -9.26113 -18.798
rtoes -1.34413
lfemur 3.72585 -36.4075 -10.3854
ltibia -3.07179
lfoot -19.1038 49.4954
ltoes 10.6542
950
root 0.753525 17.5436 8.82941 9.18628 -7.6801 -10.0861
lowerback 0.954423 1.20679 6.73895
upperback -7.94832 2.08072 1.16103
thorax -8.75718 0.579093 -2.70519
lowerneck -12.791 4.59243 6.20796
upperneck 29.2366 3.76093 4.18198
head 11.7639 2.90419 1.0141
rclavicle -1.0635e-014 1.27222e-014
rhumerus 58.8366 58.2058 -15.3254
rradius 115.884
rwrist -49.3471
rhand 5.24539 -26.19
rfingers 7.12502
rthumb 30.604 -53.6661
lclavicle -1.0635e-014 1.27222e-014
lhumerus 29.2597 -59.1638 24.3014
lradius 88.4012
lwrist 66.5916
lhand 15.0327 -15.7721
lfingers 7.12502
lthumb 39.8825 9.48928
rfemur -7.24748 24.5461 25.061
rtibia 3.77498
rfoot -9.04283 -18.1851
rtoes -2.33096
lfemur 3.33674 -36.1622 -10.1667
ltibia -2.92213
lfoot -19.456 49.4638
ltoes 11.0388
951
root 0.755944 17.5504 8.8259 8.84499 -8.06241 -9.73912
lowerback 1.21228 1.23173 6.53195
upperback -7.89224 2.11565 1.08082
thorax -8.84423 0.605648 -2.6847
lowerneck -12.6511 4.75474 6.48272
upperneck 29.5418 3.97885 4.01153
head 11.872 3.01687 0.940875
rclavicle -3.34952e-014 1.35174e-014
rhumerus 60.4914 57.0732 -15.2517
rradius 113.18
rwrist -49.081
rhand 4.40101 -26.823
rfingers 7.12502
rthumb 29.7985 -54.4466
lclavicle -3.34952e-014 1.35174e-014
lhumerus 29.1219 -59.4716 24.0917
lradius 88.3527
lwrist 66.7361
lhand 15.0007 -15.7782
lfingers 7.12502
lthumb 39.8524 9.49223
rfemur -6.89127 24.834 24.7977
rtibia 3.71181
rfoot -8.85088 -18.2815
rtoes -3.06065
lfemur 3.82024 -35.9549 -10.8734
ltibia -2.9014
lfoot -19.753 49.4328
ltoes 11.4583
